<?xml version="1.0" encoding="utf-8"?>
<!-- Generator: Adobe Illustrator 24.1.2, SVG Export Plug-In . SVG Version: 6.00 Build 0)  -->
<svg version="1.1" id="Capa_1" xmlns="http://www.w3.org/2000/svg" xmlns:xlink="http://www.w3.org/1999/xlink" x="0px" y="0px"
	 viewBox="0 0 512 512" style="enable-background:new 0 0 512 512;" xml:space="preserve">
<g>
	<g>
		<g>
			<path d="M477.9,8.5H34.1C15.3,8.5,0,23.9,0,42.7v281.6c0,4.7,3.8,8.5,8.5,8.5h494.9c4.7,0,8.5-3.8,8.5-8.5V42.7
				C512,23.9,496.7,8.5,477.9,8.5z M494.9,315.7H17.1V42.7c0-9.4,7.7-17.1,17.1-17.1h443.7c9.4,0,17.1,7.7,17.1,17.1V315.7z"/>
		</g>
	</g>
	<g>
		<g>
			<path d="M503.5,315.7H8.5c-4.7,0-8.5,3.8-8.5,8.5v42.7c0,18.8,15.3,34.1,34.1,34.1h443.7c18.8,0,34.1-15.3,34.1-34.1v-42.7
				C512,319.6,508.2,315.7,503.5,315.7z M494.9,366.9c0,9.4-7.7,17.1-17.1,17.1H34.1c-9.4,0-17.1-7.7-17.1-17.1v-34.1h477.9
				L494.9,366.9L494.9,366.9z"/>
		</g>
	</g>
	<g>
		<g>
			<path d="M281.6,349.9h-51.2c-4.7,0-8.5,3.8-8.5,8.5s3.8,8.5,8.5,8.5h51.2c4.7,0,8.5-3.8,8.5-8.5S286.3,349.9,281.6,349.9z"/>
		</g>
	</g>
	<g>
		<g>
			<path d="M366.9,452.3H145.1c-14.1,0-25.6,11.5-25.6,25.6s11.5,25.6,25.6,25.6h221.9c14.1,0,25.6-11.5,25.6-25.6
				S381,452.3,366.9,452.3z M366.9,486.4H145.1c-4.7,0-8.5-3.8-8.5-8.5s3.8-8.5,8.5-8.5h221.9c4.7,0,8.5,3.8,8.5,8.5
				S371.6,486.4,366.9,486.4z"/>
		</g>
	</g>
	<g>
		<g>
			<path d="M349.9,452.3c-28.3,0-42.7-20.1-42.7-59.7c0-4.7-3.8-8.5-8.5-8.5h-85.3c-4.7,0-8.5,3.8-8.5,8.5
				c0,39.6-14.4,59.7-42.7,59.7c-4.7,0-8.5,3.8-8.5,8.5s3.8,8.5,8.5,8.5h187.7c4.7,0,8.5-3.8,8.5-8.5S354.6,452.3,349.9,452.3z
				 M203.7,452.3c10.5-11.6,16.7-29,17.9-51.2h68.7c1.2,22.2,7.4,39.6,17.9,51.2H203.7z"/>
		</g>
	</g>
	<path d="M424.2,63.6c7,0,12.7,5.7,12.7,12.7V265c0,7-5.7,12.7-12.7,12.7H88c-7,0-12.7-5.7-12.7-12.7V76.3c0-7,5.7-12.7,12.7-12.7
		H424.2L424.2,63.6z M424.2,45.6H88c-17,0-30.7,13.8-30.7,30.7V265c0,17,13.8,30.7,30.7,30.7h336.2c17,0,30.7-13.8,30.7-30.7V76.3
		C454.9,59.4,441.2,45.6,424.2,45.6L424.2,45.6z"/>
	<g>
		<rect x="64.6" y="108.1" width="382.3" height="18"/>
	</g>
	<path d="M148.6,101.8c-9,0-16.3-7.3-16.3-16.3s7.3-16.3,16.3-16.3c9,0,16.3,7.3,16.3,16.3S157.6,101.8,148.6,101.8z M148.6,79.5
		c-3.3,0-6,2.7-6,6c0,3.3,2.7,6,6,6c3.3,0,6-2.7,6-6C154.6,82.2,151.9,79.5,148.6,79.5z"/>
	<path d="M106.6,101.8c-9,0-16.3-7.3-16.3-16.3s7.3-16.3,16.3-16.3s16.3,7.3,16.3,16.3S115.6,101.8,106.6,101.8z M106.6,79.5
		c-3.3,0-6,2.7-6,6c0,3.3,2.7,6,6,6c3.3,0,6-2.7,6-6C112.6,82.2,109.9,79.5,106.6,79.5z"/>
	<path d="M190.6,101.8c-9,0-16.3-7.3-16.3-16.3s7.3-16.3,16.3-16.3c9,0,16.3,7.3,16.3,16.3S199.6,101.8,190.6,101.8z M190.6,79.5
		c-3.3,0-6,2.7-6,6c0,3.3,2.7,6,6,6c3.3,0,6-2.7,6-6C196.6,82.2,193.9,79.5,190.6,79.5z"/>
	<g>
		<path d="M244,175c2.1,0,3.8,0.7,5.2,2.1c1.4,1.4,2,3.1,2,5.2v30.5c0,8.5-2.4,15.2-7.1,20.2c-4.7,5-11.5,7.4-20.4,7.4
			c-8.9,0-15.7-2.5-20.3-7.4c-4.7-5-7-11.7-7-20.2v-30.5c0-2.1,0.7-3.8,2-5.2c1.4-1.4,3.1-2.1,5.2-2.1c2.1,0,3.8,0.7,5.2,2.1
			c1.4,1.4,2,3.1,2,5.2v30.5c0,4.9,1.1,8.5,3.2,10.9c2.2,2.4,5.4,3.5,9.7,3.5c4.4,0,7.7-1.2,9.8-3.5c2.2-2.4,3.2-6,3.2-10.9v-30.5
			c0-2.1,0.7-3.8,2-5.2C240.2,175.7,241.9,175,244,175z"/>
		<path d="M268.1,175c2.3,0,4.3,1,5.9,3l40.1,49.8c1,1.3,1.6,2.7,1.6,4.3c0,2-0.8,3.7-2.3,5.2c-1.5,1.4-3.2,2.2-5,2.2
			c-2.3,0-4.3-1-5.9-3.1l-40.1-49.8c-1-1.3-1.6-2.7-1.6-4.3c0-2.1,0.7-3.8,2.2-5.2C264.5,175.7,266.2,175,268.1,175z M268.3,239.4
			c-1.6,0-3.2-0.6-4.7-1.9c-1.6-1.2-2.3-2.7-2.3-4.5c0-1.6,0.6-3.1,1.8-4.6l18.4-22.4l7.2,12L274,236.4
			C272.5,238.4,270.6,239.4,268.3,239.4z M308.2,175c1.9,0,3.5,0.7,4.9,2c1.3,1.3,2,2.8,2,4.5c0,0.8-0.1,1.6-0.4,2.4
			c-0.2,0.8-0.7,1.6-1.3,2.3l-18.1,22.1l-7.6-10.4l14.8-19.6C304.1,176.1,306,175,308.2,175z"/>
	</g>
</g>
</svg>
