<?xml version="1.0" encoding="utf-8"?>
<!-- Generator: Adobe Illustrator 24.1.2, SVG Export Plug-In . SVG Version: 6.00 Build 0)  -->
<svg version="1.1" id="Capa_1" xmlns="http://www.w3.org/2000/svg" xmlns:xlink="http://www.w3.org/1999/xlink" x="0px" y="0px"
	 viewBox="0 0 512 512" style="enable-background:new 0 0 512 512;" xml:space="preserve">
<g>
	<g>
		<g>
			<path d="M477.9,8.5H34.1C15.3,8.5,0,23.9,0,42.7v281.6c0,4.7,3.8,8.5,8.5,8.5h494.9c4.7,0,8.5-3.8,8.5-8.5V42.7
				C512,23.9,496.7,8.5,477.9,8.5z M494.9,315.7H17.1v-273c0-9.4,7.7-17.1,17.1-17.1h443.7c9.4,0,17.1,7.7,17.1,17.1v273H494.9z"/>
		</g>
	</g>
	<g>
		<g>
			<path d="M503.5,315.7H8.5c-4.7,0-8.5,3.8-8.5,8.5v42.7C0,385.7,15.3,401,34.1,401h443.7c18.8,0,34.1-15.3,34.1-34.1v-42.7
				C512,319.6,508.2,315.7,503.5,315.7z M494.9,366.9c0,9.4-7.7,17.1-17.1,17.1H34.1c-9.4,0-17.1-7.7-17.1-17.1v-34.1h477.9V366.9
				L494.9,366.9z"/>
		</g>
	</g>
	<g>
		<g>
			<path d="M281.6,349.9h-51.2c-4.7,0-8.5,3.8-8.5,8.5s3.8,8.5,8.5,8.5h51.2c4.7,0,8.5-3.8,8.5-8.5S286.3,349.9,281.6,349.9z"/>
		</g>
	</g>
	<g>
		<g>
			<path d="M366.9,452.3H145.1c-14.1,0-25.6,11.5-25.6,25.6s11.5,25.6,25.6,25.6H367c14.1,0,25.6-11.5,25.6-25.6
				S381,452.3,366.9,452.3z M366.9,486.4H145.1c-4.7,0-8.5-3.8-8.5-8.5s3.8-8.5,8.5-8.5H367c4.7,0,8.5,3.8,8.5,8.5
				S371.6,486.4,366.9,486.4z"/>
		</g>
	</g>
	<g>
		<g>
			<path d="M349.9,452.3c-28.3,0-42.7-20.1-42.7-59.7c0-4.7-3.8-8.5-8.5-8.5h-85.3c-4.7,0-8.5,3.8-8.5,8.5
				c0,39.6-14.4,59.7-42.7,59.7c-4.7,0-8.5,3.8-8.5,8.5s3.8,8.5,8.5,8.5h187.7c4.7,0,8.5-3.8,8.5-8.5S354.6,452.3,349.9,452.3z
				 M203.7,452.3c10.5-11.6,16.7-29,17.9-51.2h68.7c1.2,22.2,7.4,39.6,17.9,51.2H203.7z"/>
		</g>
	</g>
	<path d="M424.2,63.6c7,0,12.7,5.7,12.7,12.7V265c0,7-5.7,12.7-12.7,12.7H88c-7,0-12.7-5.7-12.7-12.7V76.3c0-7,5.7-12.7,12.7-12.7
		L424.2,63.6L424.2,63.6z M424.2,45.6H88c-17,0-30.7,13.8-30.7,30.7V265c0,17,13.8,30.7,30.7,30.7h336.2c17,0,30.7-13.8,30.7-30.7
		V76.3C454.9,59.4,441.2,45.6,424.2,45.6L424.2,45.6z"/>
	<g>
		<rect x="64.6" y="108.1" width="382.3" height="18"/>
	</g>
	<path d="M148.6,101.8c-9,0-16.3-7.3-16.3-16.3s7.3-16.3,16.3-16.3s16.3,7.3,16.3,16.3S157.6,101.8,148.6,101.8z M148.6,79.5
		c-3.3,0-6,2.7-6,6s2.7,6,6,6s6-2.7,6-6S151.9,79.5,148.6,79.5z"/>
	<path d="M106.6,101.8c-9,0-16.3-7.3-16.3-16.3s7.3-16.3,16.3-16.3s16.3,7.3,16.3,16.3S115.6,101.8,106.6,101.8z M106.6,79.5
		c-3.3,0-6,2.7-6,6s2.7,6,6,6s6-2.7,6-6S109.9,79.5,106.6,79.5z"/>
	<path d="M190.6,101.8c-9,0-16.3-7.3-16.3-16.3s7.3-16.3,16.3-16.3s16.3,7.3,16.3,16.3S199.6,101.8,190.6,101.8z M190.6,79.5
		c-3.3,0-6,2.7-6,6s2.7,6,6,6s6-2.7,6-6S193.9,79.5,190.6,79.5z"/>
</g>
<g>
	<g>
		<path d="M312.1,192.8c0-0.2,0-0.4,0-0.5c0-22.7-18.3-41-41-41c-13.8,0-26.6,6.9-34.2,18.4c-15.2-5.1-31.6,3.1-36.7,18.3
			c-1,2.9-1.5,6-1.5,9.1c0,0.2,0,0.4,0,0.6c-10.3,2.7-16.5,13.2-13.8,23.5c2.2,8.5,9.9,14.4,18.7,14.4h36.4c1.3,0,2.4-1.1,2.4-2.4
			s-1.1-2.4-2.4-2.4h-36.4c-8,0-14.4-6.6-14.4-14.6c0-7.2,5.3-13.2,12.4-14.2c1.3-0.2,2.2-1.3,2.1-2.6c-0.1-0.8-0.1-1.6-0.1-2.4
			c0-13.3,10.8-24.1,24.2-24.1c3.2,0,6.3,0.6,9.2,1.8c1.1,0.5,2.4,0,3-1c10.2-17.2,32.4-22.9,49.6-12.7c11,6.5,17.8,18.4,17.8,31.2
			c0,0.8,0,1.6-0.1,2.3c-0.1,1.3,0.8,2.5,2.1,2.6c9.3,1.1,15.8,9.6,14.7,18.8c-1,8.4-8.2,14.8-16.7,14.8c-0.7,0-1.5,0-2.2-0.1
			c-0.3,0-0.7,0-1,0.1h-31c-1.3,0-2.4,1.1-2.4,2.4s1.1,2.4,2.4,2.4h31.8c0.2,0,0.4,0,0.5-0.1c0.6,0.1,1.2,0.1,1.9,0.1
			c12,0,21.7-9.7,21.7-21.7C329,203.8,321.9,195.1,312.1,192.8z"/>
		<path d="M307.2,239.7c-0.6,0-1.1,0-1.6,0c-0.3,0-0.5,0-0.8,0H273c-3.5,0-6.4-2.9-6.4-6.4s2.9-6.4,6.4-6.4h30.5
			c0.7-0.1,1.4-0.2,2.1-0.1c0.5,0.1,1.1,0.1,1.7,0.1c0,0,0,0,0,0c6.5,0,12-4.9,12.8-11.3c0.4-3.4-0.5-6.8-2.6-9.5
			c-2.1-2.7-5.2-4.4-8.6-4.9c-3.4-0.4-5.9-3.4-5.6-6.9c0-0.6,0.1-1.2,0.1-2c0-11.3-6-22-15.8-27.7c-15.3-9-35.1-4-44.1,11.3
			c-1.6,2.7-5.1,3.9-8,2.7c-2.4-1-5-1.5-7.7-1.5c0,0,0,0,0,0c-11.1,0-20.1,9-20.2,20.1c0,0.6,0,1.3,0.1,2c0.3,3.4-2.1,6.4-5.5,6.9
			c-5.1,0.7-8.9,5.2-9,10.3c0,5.8,4.6,10.5,10.4,10.5h36.3c3.5,0,6.4,2.9,6.4,6.4s-2.9,6.4-6.4,6.4h-36.4
			c-10.6,0-19.9-7.2-22.5-17.4c-3-11.4,3.1-23.1,13.8-27.4c0.2-2.8,0.7-5.5,1.6-8.1c2.8-8.4,8.7-15.1,16.6-19.1
			c7-3.5,14.8-4.4,22.3-2.6c8.5-11.2,21.7-17.8,35.8-17.8c0,0,0,0,0,0c12,0,23.3,4.7,31.8,13.2c7.9,7.9,12.5,18.3,13.1,29.4
			c10.1,3.6,17,13.2,17,24.2C333,228.2,321.4,239.7,307.2,239.7z"/>
	</g>
	<g>
		<path d="M237.8,206.7l16.4-16.4v67.7c0,1.3,1.1,2.4,2.4,2.4s2.4-1.1,2.4-2.4v-67.7l16.4,16.4c1,0.9,2.5,0.9,3.4-0.1
			c0.9-0.9,0.9-2.4,0-3.4l-20.5-20.5c-0.9-0.9-2.5-0.9-3.4,0l-20.5,20.5c-0.9,1-0.9,2.5,0.1,3.4
			C235.4,207.6,236.9,207.6,237.8,206.7z"/>
		<path d="M256.6,264.5c-3.5,0-6.4-2.9-6.4-6.4V200l-9.6,9.6c-2.5,2.4-6.4,2.4-8.9,0c-1.2-1.2-1.9-2.8-2-4.5c0-1.7,0.6-3.3,1.8-4.6
			L252,180c2.5-2.5,6.6-2.5,9.1,0l20.5,20.5c2.5,2.5,2.5,6.5,0,9c-2.5,2.5-6.5,2.6-9.1,0.2L263,200v58.1
			C263,261.6,260.1,264.5,256.6,264.5z"/>
	</g>
</g>
</svg>
