<?xml version="1.0" encoding="utf-8"?>
<!-- Generator: Adobe Illustrator 24.1.2, SVG Export Plug-In . SVG Version: 6.00 Build 0)  -->
<svg version="1.1" id="Capa_1" xmlns="http://www.w3.org/2000/svg" xmlns:xlink="http://www.w3.org/1999/xlink" x="0px" y="0px"
	 viewBox="0 0 512 512" style="enable-background:new 0 0 512 512;" xml:space="preserve">
<g>
	<g>
		<g>
			<path d="M477.9,8.5H34.1C15.3,8.5,0,23.9,0,42.7v281.6c0,4.7,3.8,8.5,8.5,8.5h494.9c4.7,0,8.5-3.8,8.5-8.5V42.7
				C512,23.9,496.7,8.5,477.9,8.5z M494.9,315.7H17.1V42.7c0-9.4,7.7-17.1,17.1-17.1h443.7c9.4,0,17.1,7.7,17.1,17.1V315.7z"/>
		</g>
	</g>
	<g>
		<g>
			<path d="M503.5,315.7H8.5c-4.7,0-8.5,3.8-8.5,8.5v42.7c0,18.8,15.3,34.1,34.1,34.1h443.7c18.8,0,34.1-15.3,34.1-34.1v-42.7
				C512,319.6,508.2,315.7,503.5,315.7z M494.9,366.9c0,9.4-7.7,17.1-17.1,17.1H34.1c-9.4,0-17.1-7.7-17.1-17.1v-34.1h477.9
				L494.9,366.9L494.9,366.9z"/>
		</g>
	</g>
	<g>
		<g>
			<path d="M281.6,349.9h-51.2c-4.7,0-8.5,3.8-8.5,8.5s3.8,8.5,8.5,8.5h51.2c4.7,0,8.5-3.8,8.5-8.5S286.3,349.9,281.6,349.9z"/>
		</g>
	</g>
	<g>
		<g>
			<path d="M366.9,452.3H145.1c-14.1,0-25.6,11.5-25.6,25.6s11.5,25.6,25.6,25.6h221.9c14.1,0,25.6-11.5,25.6-25.6
				S381,452.3,366.9,452.3z M366.9,486.4H145.1c-4.7,0-8.5-3.8-8.5-8.5s3.8-8.5,8.5-8.5h221.9c4.7,0,8.5,3.8,8.5,8.5
				S371.6,486.4,366.9,486.4z"/>
		</g>
	</g>
	<g>
		<g>
			<path d="M349.9,452.3c-28.3,0-42.7-20.1-42.7-59.7c0-4.7-3.8-8.5-8.5-8.5h-85.3c-4.7,0-8.5,3.8-8.5,8.5
				c0,39.6-14.4,59.7-42.7,59.7c-4.7,0-8.5,3.8-8.5,8.5s3.8,8.5,8.5,8.5h187.7c4.7,0,8.5-3.8,8.5-8.5S354.6,452.3,349.9,452.3z
				 M203.7,452.3c10.5-11.6,16.7-29,17.9-51.2h68.7c1.2,22.2,7.4,39.6,17.9,51.2H203.7z"/>
		</g>
	</g>
	<path d="M424.2,63.6c7,0,12.7,5.7,12.7,12.7V265c0,7-5.7,12.7-12.7,12.7H88c-7,0-12.7-5.7-12.7-12.7V76.3c0-7,5.7-12.7,12.7-12.7
		H424.2L424.2,63.6z M424.2,45.6H88c-17,0-30.7,13.8-30.7,30.7V265c0,17,13.8,30.7,30.7,30.7h336.2c17,0,30.7-13.8,30.7-30.7V76.3
		C454.9,59.4,441.2,45.6,424.2,45.6L424.2,45.6z"/>
	<g>
		<rect x="64.6" y="108.1" width="382.3" height="18"/>
	</g>
	<path d="M148.6,101.8c-9,0-16.3-7.3-16.3-16.3s7.3-16.3,16.3-16.3c9,0,16.3,7.3,16.3,16.3S157.6,101.8,148.6,101.8z M148.6,79.5
		c-3.3,0-6,2.7-6,6c0,3.3,2.7,6,6,6c3.3,0,6-2.7,6-6C154.6,82.2,151.9,79.5,148.6,79.5z"/>
	<path d="M106.6,101.8c-9,0-16.3-7.3-16.3-16.3s7.3-16.3,16.3-16.3s16.3,7.3,16.3,16.3S115.6,101.8,106.6,101.8z M106.6,79.5
		c-3.3,0-6,2.7-6,6c0,3.3,2.7,6,6,6c3.3,0,6-2.7,6-6C112.6,82.2,109.9,79.5,106.6,79.5z"/>
	<path d="M190.6,101.8c-9,0-16.3-7.3-16.3-16.3s7.3-16.3,16.3-16.3c9,0,16.3,7.3,16.3,16.3S199.6,101.8,190.6,101.8z M190.6,79.5
		c-3.3,0-6,2.7-6,6c0,3.3,2.7,6,6,6c3.3,0,6-2.7,6-6C196.6,82.2,193.9,79.5,190.6,79.5z"/>
	<g>
		<path d="M210.5,239.2c-0.9,0-1.8-0.3-2.8-0.8c-1-0.5-2.1-1.1-3.2-1.7l-39-22.9c-1-0.6-1.7-1.5-2.2-2.5c-0.5-1-0.7-2-0.7-3.1
			c0-1.1,0.2-2.2,0.7-3.2c0.5-1,1.2-1.8,2.2-2.3l39-22.4c1-0.6,2-1.1,2.9-1.5c0.9-0.4,1.8-0.5,2.6-0.5c1.6,0,3.1,0.8,4.5,2.3
			c1.4,1.6,2.1,3.2,2.1,4.9c0,0.8-0.2,1.6-0.7,2.3c-0.4,0.8-1.1,1.4-2,2l-41.6,24.1l-0.8-12l42.4,25.3c1,0.6,1.6,1.3,2,2.1
			c0.4,0.8,0.6,1.7,0.6,2.6c0,1.9-0.7,3.6-2,5.1C213.2,238.5,211.8,239.2,210.5,239.2z"/>
		<path d="M232.7,255.3c-1.4,0-2.8-0.6-4.2-1.7c-1.4-1.1-2.2-2.6-2.2-4.3c0-1,0.2-1.9,0.7-2.9l48.7-99.7c0.6-1.1,1.3-2,2.3-2.6
			c1-0.6,2-1,3-1c1.4,0,2.7,0.5,4.1,1.6c1.4,1.1,2.1,2.5,2.1,4.4c0,1-0.2,1.9-0.7,2.9l-48.6,99.7c-0.6,1.1-1.3,2-2.2,2.6
			C234.8,255,233.8,255.3,232.7,255.3z"/>
		<path d="M303.3,239.2c-1.6,0-3.1-0.8-4.5-2.3c-1.4-1.6-2.1-3.2-2.1-4.9c0-0.9,0.2-1.7,0.7-2.4c0.4-0.7,1.1-1.4,2-1.9l41.6-24.1
			l0.8,12l-42.4-25.3c-1-0.6-1.6-1.3-2-2.1c-0.4-0.8-0.6-1.7-0.6-2.6c0-1.9,0.7-3.6,2-5.1c1.4-1.5,2.7-2.2,4-2.2
			c0.9,0,1.8,0.3,2.8,0.8c1,0.5,2.1,1.1,3.2,1.7l39,22.9c1,0.6,1.7,1.3,2.2,2.3c0.5,1,0.7,2.1,0.7,3.2c0,1.1-0.2,2.2-0.7,3.2
			c-0.5,1-1.2,1.8-2.2,2.3l-39,22.4c-1,0.6-2,1-2.9,1.4C305.1,239,304.2,239.2,303.3,239.2z"/>
	</g>
</g>
</svg>
